<svg id="b9f484d5-41e1-4e0c-97f8-b42fd394bbec" data-name="Layer 1" xmlns="http://www.w3.org/2000/svg" width="865.76" height="682.89" viewBox="0 0 865.76 682.89"><path d="M132.53,665S32,583.79,43.8,498.55s108.44-14.21,132.1-91.33S112.35,229.33,191.45,159s152.05-3.4,201.35-17.61S438.15,17.55,550.54,15.52s205.56,67,163.9,264.86S801,500.58,818.69,571.61s-26,95.81-26,95.81Z" fill="#378b3d"/><path d="M132.53,665S32,583.79,43.8,498.55s108.44-14.21,132.1-91.33S112.35,229.33,191.45,159s152.05-3.4,201.35-17.61S438.15,17.55,550.54,15.52s205.56,67,163.9,264.86S801,500.58,818.69,571.61s-26,95.81-26,95.81Z" fill="#fff" opacity="0.7"/><path d="M341.63,80.21s27.12,10.1,30.42,42.66l-17.56-22S354.67,93.23,341.63,80.21Z" fill="#2f2e41"/><polygon points="515.41 258.27 638.74 258.27 610.01 364.09 486.68 364.09 515.41 258.27" fill="#378b3d"/><polygon points="518.92 262.21 633.08 262.21 606.49 360.16 492.34 360.16 518.92 262.21" fill="#fff"/><rect x="437.1" y="358.48" width="172.91" height="5.63" fill="#378b3d"/><rect x="437.1" y="358.48" width="172.91" height="5.63" opacity="0.4"/><rect x="530.55" y="358.48" width="79.46" height="5.63" opacity="0.4"/><rect x="381.78" y="368" width="9.29" height="295.08" fill="#bcbec0"/><rect x="373.84" y="368" width="7.94" height="295.08" fill="#a7a9ac"/><rect x="619.89" y="522.39" width="9.29" height="140.69" fill="#bcbec0"/><rect x="611.95" y="522.41" width="7.94" height="140.69" fill="#a7a9ac"/><rect x="719.41" y="522.39" width="9.29" height="140.69" fill="#bcbec0"/><rect x="711.47" y="522.41" width="7.94" height="140.69" fill="#a7a9ac"/><rect x="527.76" y="370.85" width="90.68" height="159.56" fill="#bcbec0"/><rect x="618.44" y="370.87" width="119.49" height="159.56" fill="#d1d3d4"/><polygon points="618.44 370.87 527.78 370.87 527.78 378.64 618.44 378.64 737.94 378.64 737.94 370.87 618.44 370.87" fill="#a7a9ac"/><rect x="535.5" y="380.01" width="77.31" height="37.25" fill="#d1d3d4"/><rect x="563.98" y="395.12" width="20.38" height="7.03" fill="#e6e7e8"/><rect x="535.5" y="431.32" width="77.31" height="37.25" fill="#d1d3d4"/><rect x="563.98" y="445.73" width="20.38" height="7.03" fill="#e6e7e8"/><rect x="535.5" y="482.63" width="77.31" height="37.25" fill="#d1d3d4"/><rect x="563.98" y="496.33" width="20.38" height="7.03" fill="#e6e7e8"/><rect x="361.03" y="363.86" width="389.24" height="9.28" fill="#d1d3d4"/><rect x="632.74" y="363.86" width="117.53" height="9.28" fill="#bcbec0"/><path d="M394,458.29s11.59,8,28.73,57.64c5.71,16.5,37.83,105.44,39.52,111.54S467.36,641,472.43,641s23.66-23.66,21.4-26.47-12.95-14.09-12.95-14.09-6.39-72-7.52-92.27,3.48-44.7-7.21-61-58,.56-58,.56Z" fill="#f9b499"/><path d="M486.09,600.51a7.57,7.57,0,0,0-4,7.34c.58,5.07,5.65,11.83,5.65,11.83s-10.72,8.45-16.34,9-11.83,1.69-11.83,3.38,4.51,4.51,7.31,10.69a136.39,136.39,0,0,0,10.72,18c1.69,2.25,2.8,3.94,9,2.25s19.73-14.08,27-19.15,29.29-8.44,33.24-11.27,16.33-20.83,10.7-24.21-7.32.55-14.08,2.24-26.48-.55-37.17-2.8-14.1-2.82-14.1-2.82Z" fill="#378b3d"/><path d="M476.66,659.51c.37.54.67,1,.91,1.28,1.69,2.25,2.8,3.94,9,2.25s19.72-14.08,27-19.15,29.28-8.44,33.24-11.27,16.32-20.83,10.69-24.21a9.21,9.21,0,0,0-2.55-1.12c.1.37.2.71.31,1.12,1.69,6.76-4,13.52-9,18.59s-22,3.93-40.56,13.51A182.88,182.88,0,0,0,476.66,659.51Z" fill="#2f2e41"/><path d="M476.12,544.16c-1.22-14.82-2.29-28.73-2.69-35.92-1.13-20.27,3.48-44.69-7.22-61s-58,.56-58,.56L394,458.29s11.59,8,28.73,57.64c2.18,6.31,8.23,23.22,15,42Z" fill="#2f2e41"/><path d="M476.12,544.16c-1.22-14.82-2.29-28.73-2.69-35.92-1.13-20.27,3.48-44.69-7.22-61s-58,.56-58,.56L394,458.29s11.59,8,28.73,57.64c2.18,6.31,8.23,23.22,15,42Z" opacity="0.2"/><path d="M448.54,169.35a32.57,32.57,0,0,1,2,12.25c-.51,5.63-5.63,8.18-6.13,6.66a36.52,36.52,0,0,1-.51-7.67v-2.05a25.94,25.94,0,0,1-4.6,5.63c-3.58,3.56-5.62,2.55-7.16,2.55s-2.05-5.07.52-8.69S443.43,166.27,448.54,169.35Z" fill="#f7a48b"/><path d="M460.3,182.63c-5.07-3.08-12.78,7.67-24.54,5.07-1.5-.32-2-2.55.51-7.66s10.73-9.21,14.82-12.26,7.16-5.63,7.16-9.21-9.21,2-11.83,4.09a83.11,83.11,0,0,1-9.63,5.15l-2.21.12c-4.55.29-11.56,1.1-14.21,3.38-3.49,3-5.48,13.42-6.31,17.42-2.26,3.28-4.29,6.3-5.46,8.13C405,202.47,333,255.13,333,255.13l5.07,45,81.78-93a22.37,22.37,0,0,1,7.67-4.09c5.63-2,13.28-3.58,19.94-7.16a155.47,155.47,0,0,0,14.32-8.69C465.3,185,463.07,184.29,460.3,182.63Z" fill="#f9b499"/><path d="M374.35,224.47C354.27,239.68,333,255.21,333,255.21l5.07,45,50.28-57.12Z" fill="#378b3d"/><path d="M374.35,224.47C354.27,239.68,333,255.21,333,255.21l5.07,45,50.28-57.12Z" opacity="0.2"/><path d="M349.2,394.6s36.05-1.69,88.44,6.76,72,17.45,70.42,27.59C501.67,470.09,405.63,605.5,405.63,605.5l1.69,19.15s-3.38,4.51-15.21,5.07-26.48-16.33-26.48-16.33,13.23-13.69,18.3-30,45.83-121.76,45.83-121.76-53.52,11.83-112.67,1.13S349.2,394.6,349.2,394.6Z" fill="#f9b499"/><path d="M437.64,401.36c-52.39-8.45-88.44-6.76-88.44-6.76S258,452.05,317.09,462.75s112.67-1.13,112.67-1.13-16.9,43.94-30.42,79.43l39.73,15.21c28.43-43,65.12-102.41,69-127.31C509.63,418.81,490,409.81,437.64,401.36Z" fill="#2f2e41"/><path d="M405.63,605.5a9.33,9.33,0,0,0-5.07,5.07,74.08,74.08,0,0,0-2.82,7.89,103.17,103.17,0,0,1-18-5.64,100.49,100.49,0,0,1-12.4-6.76s-5.07.57-5.07,4a43.88,43.88,0,0,1-2.81,15.21c-1.45,3.62-4.54,11.68-6.55,16.9a4.6,4.6,0,0,0,2.66,5.93,5,5,0,0,0,.63.19c8.93,2,27.73,6.32,43.82,11.27,22,6.76,46.19,3.38,49,2.82s14.08-7.33,9-11.83-34.93-16.34-41.12-24.23S405.63,605.5,405.63,605.5Z" fill="#378b3d"/><path d="M455.75,649c0,5.6-2.87,11.15-11.83,11.15S419.13,659,396.61,650a296.6,296.6,0,0,0-41.8-12.92c-.69,1.81-1.37,3.57-1.94,5.07a4.59,4.59,0,0,0,2.67,5.93,4.19,4.19,0,0,0,.63.19c8.92,2,27.73,6.32,43.82,11.27,22,6.76,46.18,3.38,49,2.83s14.08-7.34,9-11.83A14.56,14.56,0,0,0,455.75,649Z" fill="#2f2e41"/><path d="M235.4,263.34s-6.13,48.57-5.61,57.76,7.15,88.42,8.69,105.81,8.69,32.7,21.46,35.77,46,7.66,60.31,4.09S349.9,431,355,418.73s8.7-19.94,7.16-22.49-8.17-8.18-8.17-8.18-12.78-92.95-15.86-117-1.52-26.06-12.77-35.27S255.85,218.91,235.4,263.34Z" fill="#378b3d"/><path d="M377.12,141.11c-4.1-30.1-26.4-51.92-49.81-48.73-15.39,2.09-27.42,14.47-32.7,31.25-10,7.78-18.41,17.28-17.82,23.73,1,11.24,14.31,36.81,14.31,36.81l-8.18,26.56,42.93,21.48s8.62-20.34,13.59-30.57c.9,0,1.81-.12,2.71-.25C365.56,198.21,381.21,171.22,377.12,141.11Z" fill="#f9b499"/><polygon points="339.44 201.64 326.14 197.34 331.63 218.81 339.44 201.64" fill="#f7a48b"/><path d="M354.49,100.86s7.17,12.77,2.05,21-17.37,11.75-24,19.42-10.14,21-12.77,22-10.14-14.32-14.84-13.3-14.26,7.12-7.62,18.29c3.73,6.53,7.76,17.05,11.92,20.5,0,0-9.91,3.64-13.48,3.64s-14.31-6.13-19.41-11.83-23.44-22.41-24.56-36.2,17.37-31.18,17.37-31.18-22-1.53-16.34-9.71,25.55-13.29,25.55-13.29-3.58-12.77,1.54-15.34,36.29,7.74,36.29,7.74-8.69-11.24,3.58-11.83S353,85.51,354.49,100.86Z" fill="#2f2e41"/><path d="M338.13,246.44s-.5-14.82-4.59-18.91S299.3,206.58,285.49,203s-28.1,1.52-37.31,4.6-15.33,11.79-19,30.74S225.13,269,232.8,270s18.4-22,42.42-26.58,46-.51,51.12,2.05S338.13,246.44,338.13,246.44Z" fill="#378b3d"/><path d="M338.13,246.44s-.5-14.82-4.59-18.91S299.3,206.58,285.49,203s-28.1,1.52-37.31,4.6-15.33,11.79-19,30.74S225.13,269,232.8,270s18.4-22,42.42-26.58,46-.51,51.12,2.05S338.13,246.44,338.13,246.44Z" fill="#fff" opacity="0.2"/><path d="M489.91,329.59s-1.69,10.63-3.64,11.83-1.82-9.87-1.82-9.87-2.44,6.37-3.94,7.89-.61-6.52-.61-6.52l1.69-7.59Z" fill="#f7a48b"/><path d="M468.28,319.11l15.68.25s4.14.59,4.73,3a73,73,0,0,0,3,7.69l-24.27-7.1Z" fill="#f7a48b"/><path d="M473.89,324.06s22-3,22.49-1.18c.44,1.33,2.13,13.36,2.5,17.25a.62.62,0,0,1-.59.66.65.65,0,0,1-.53-.24L491.65,330l-16.58,1.19S470.34,327,473.89,324.06Z" fill="#f7a48b"/><path d="M292.27,257.8s-13.62,10.05-8.89,34.91,37.87,93,40.83,98.79,16,6.51,21.88,4.74,111.27-43.77,111.27-43.77,11.24-3,13-5.34,13-14.79,13-14.79,17.74,2.37,21.88,1.18-4.14-2.36-8.28-3.55c-3.19-.91-20.8-7.79-28.72-10.9a6.19,6.19,0,0,0-6.76,1.44c-5.55,5.68-17.36,17.73-19.61,19.52-3,2.37-86.37,16.58-86.37,16.58S336,264.9,328.32,257.21s-21.3-5.92-21.3-5.92C301.5,251.4,292.27,257.8,292.27,257.8Z" fill="#378b3d"/><path d="M292.27,257.8s-13.62,10.05-8.89,34.91,37.87,93,40.83,98.79,16,6.51,21.88,4.74,111.27-43.77,111.27-43.77,11.24-3,13-5.34,13-14.79,13-14.79,17.74,2.37,21.88,1.18-4.14-2.36-8.28-3.55c-3.19-.91-20.8-7.79-28.72-10.9a6.19,6.19,0,0,0-6.76,1.44c-5.55,5.68-17.36,17.73-19.61,19.52-3,2.37-86.37,16.58-86.37,16.58S336,264.9,328.32,257.21s-21.3-5.92-21.3-5.92C301.5,251.4,292.27,257.8,292.27,257.8Z" opacity="0.2"/><path d="M402.3,374.34c27.63-11,55.06-21.87,55.06-21.87s11.24-3,13-5.34,13-14.79,13-14.79,17.76,2.37,22,1.18-4.14-2.36-8.28-3.55c-3.19-.91-20.8-7.79-28.73-10.9a6.19,6.19,0,0,0-6.76,1.44C456,326.19,444.23,338.24,442,340c-1.54,1.23-24.84,5.66-46.86,9.63Z" fill="#f9b499"/><path d="M217.39,490.77,191.62,662a1.4,1.4,0,0,0,2.72.69l38.87-169.13Z" fill="#bcbec0"/><path d="M255.85,491.9l11.21,169.81a1.4,1.4,0,1,0,2.8,0h0l1.94-171.18Z" fill="#bcbec0"/><path d="M293.66,494.45l30.75,166.87a1.41,1.41,0,0,0,2.76-.44L309.25,490.82Z" fill="#bcbec0"/><path d="M353.11,493.05l25.16,168a1.4,1.4,0,0,0,2.77-.32L368.84,490Z" fill="#bcbec0"/><path d="M329.06,458.87s-29.59-9.87-43.4-45.36S249.19,316.88,233.41,309s-46.34,6.89-48.32,64.08,2.66,99.71,15.4,113.77c11.27,12.38,30.42,28.17,96.88,29.28,59.37,1,83.6-21.61,91.83-29.28s21.69-24.07,10.85-24.07S342.87,462.75,329.06,458.87Z" fill="#d1d3d4"/><ellipse cx="304.65" cy="162.42" rx="9.64" ry="13.76" fill="#f9b499"/><path d="M528.26,333.88l-3.22-.13.31-7.37,2.87.12a4.3,4.3,0,0,1,1.28.23,1.78,1.78,0,0,1,1.24,1.83,1.5,1.5,0,0,1-.62,1.26,2.38,2.38,0,0,1-.27.18l-.27.11a1.86,1.86,0,0,1,1.07.66A1.69,1.69,0,0,1,531,332a2,2,0,0,1-.58,1.34A2.74,2.74,0,0,1,528.26,333.88Zm-1.39-4.45.78,0a2.64,2.64,0,0,0,1-.1.63.63,0,0,0,.36-.62.66.66,0,0,0-.28-.66,2.31,2.31,0,0,0-1-.21l-.79,0Zm-.13,3,1.13.05a2.4,2.4,0,0,0,1.06-.13.7.7,0,0,0,.39-.67A.66.66,0,0,0,529,331a3.12,3.12,0,0,0-1.19-.21l-1,0Z" fill="#2f2e41"/><path d="M534.41,334.14l.31-7.36,1.64.07-.25,5.9,3.14.13-.06,1.47Z" fill="#2f2e41"/><path d="M544.37,332.66a1.36,1.36,0,0,0,1.09.56,1.33,1.33,0,0,0,1.12-.47,2.19,2.19,0,0,0,.47-1.38l.17-4.06,1.64.07-.17,4.12a3.32,3.32,0,0,1-1,2.42,3.43,3.43,0,0,1-4.54-.2,3.28,3.28,0,0,1-.79-2.49l.18-4.12,1.64.07-.17,4.07A2.18,2.18,0,0,0,544.37,332.66Z" fill="#2f2e41"/><path d="M558,327.76l-.06,1.47-3.67-.16-.07,1.52,3.3.14-.06,1.4-3.29-.14-.07,1.53,3.78.16-.06,1.45-5.43-.23.32-7.36Z" fill="#2f2e41"/><path d="M567.27,329.12a3.5,3.5,0,0,1,.94,2.73,3.59,3.59,0,0,1-1.15,2.67,4.33,4.33,0,0,1-3.18.87l-2.51-.1.31-7.37,2.6.11A4.35,4.35,0,0,1,567.27,329.12Zm-1.4,4.33a2.17,2.17,0,0,0,.68-1.63,2.23,2.23,0,0,0-.54-1.7,2.63,2.63,0,0,0-1.83-.66l-.92,0-.19,4.48,1,.05A2.45,2.45,0,0,0,565.87,333.45Z" fill="#2f2e41"/><path d="M577.82,335a4,4,0,0,1-5.5-.23,3.84,3.84,0,0,1,.23-5.43,3.77,3.77,0,0,1,2.79-1,3.82,3.82,0,0,1,2.71,1.21,3.85,3.85,0,0,1-.23,5.42Zm-.45-2.73a2.39,2.39,0,0,0-.56-1.71,2,2,0,0,0-1.52-.76,2.08,2.08,0,0,0-1.59.63,2.44,2.44,0,0,0-.7,1.66,2.4,2.4,0,0,0,.56,1.7,2,2,0,0,0,1.53.76,2.06,2.06,0,0,0,1.58-.63A2.35,2.35,0,0,0,577.37,332.23Z" fill="#2f2e41"/><path d="M585.06,333.61l2.07-4.61,1.78.07-3.27,7.24-1.39-.05-2.65-7.5,1.78.08Z" fill="#2f2e41"/><path d="M597.21,329.42l-.07,1.47-3.66-.16-.07,1.52,3.3.14-.06,1.4-3.3-.14-.06,1.53,3.78.16L597,336.8l-5.43-.23.31-7.37Z" fill="#2f2e41"/><path d="M561.72,306.46c-2.76-9.95-22.58-5.54-17.69-28.78,5.63,11,26.31,4.19,30.48,21.74Z" fill="#378b3d"/><path d="M561.72,306.46c-2.76-9.95-22.58-5.54-17.69-28.78,5.63,11,26.31,4.19,30.48,21.74Z" opacity="0.2"/><path d="M561.38,298.48c-6.13,10.18-9.44,20.63-20.78,22.4,10.68,2.29,29.25,2.46,33.42-11.23,3.86-12.66,9.31-15.5,14.6-15.78C579.77,285.66,567.5,288.29,561.38,298.48Z" fill="#2f2e41"/><path d="M536.14,283.24c7.49,8.63,31.5,1.76,37.2,16.65,5.46,14.3-8,26.1-32.74,21,10.66.16,20.42-3.56,17.17-11.73C554,299.55,535,309.08,536.14,283.24Z" fill="#378b3d"/><path d="M494.9,126.47l-13.28,4.27a1.71,1.71,0,0,0-1.24-.55c-.76,0-.93,1.18-.17,1.18l.12,0-2.43,1.2c-.68.34-.23,1.45.46,1.1l2.59-1.28a1.67,1.67,0,0,1-.56.83,4.73,4.73,0,0,1-2.48.61c-.77.06-.61,1.24.16,1.18,1.5-.11,3.27-.41,4-1.95a2.17,2.17,0,0,0,.12-1.28l13.19-4.24C496.08,127.34,495.63,126.24,494.9,126.47Z" fill="#e6e7e8"/><path d="M497.74,127.43a26.82,26.82,0,0,1,3.51-1.21c-2.38-.36-14.46-1.24-14,3.45a1.76,1.76,0,0,0,1.74,1.41,5,5,0,0,0,2.33-.64C493.52,129.42,495.57,128.33,497.74,127.43Z" fill="#2f2e41"/><path d="M492.34,102.89c5.29,1.24,16.88,1.07,20.58-4,3.08-4.21-2.81-11.06-2.55-15.64.29-5.31,1.93-10.7.63-15.87-1.34-5.33-5.64-9.46-10.35-12.29s-10-4.64-14.81-7.21a53.11,53.11,0,0,1-16.32-13.44c-1.82,5.26-.17,11.22,3,15.82s7.59,8.11,12,11.54l-14.92-1.31A35.66,35.66,0,0,0,492.7,72.8l-17.76.46A59.89,59.89,0,0,0,491.34,81a28.1,28.1,0,0,0-14.28.36,21.26,21.26,0,0,0,15.1,4.57c-1,1.17-2.84,1.23-4.39,1s-3.15-.69-4.65-.25-2.69,2.33-1.79,3.61c.63.9,1.9,1,3,1.06l8.91.32a8.47,8.47,0,0,0-8.45,2.22A29.2,29.2,0,0,0,497,97.24c-1.8-.33-3.75-.66-5.41.12s-2.65,3.16-1.41,4.51A4,4,0,0,0,492.34,102.89Z" fill="#378b3d"/><path d="M492.34,102.89c5.29,1.24,16.88,1.07,20.58-4,3.08-4.21-2.81-11.06-2.55-15.64.29-5.31,1.93-10.7.63-15.87-1.34-5.33-5.64-9.46-10.35-12.29s-10-4.64-14.81-7.21a53.11,53.11,0,0,1-16.32-13.44c-1.82,5.26-.17,11.22,3,15.82s7.59,8.11,12,11.54l-14.92-1.31A35.66,35.66,0,0,0,492.7,72.8l-17.76.46A59.89,59.89,0,0,0,491.34,81a28.1,28.1,0,0,0-14.28.36,21.26,21.26,0,0,0,15.1,4.57c-1,1.17-2.84,1.23-4.39,1s-3.15-.69-4.65-.25-2.69,2.33-1.79,3.61c.63.9,1.9,1,3,1.06l8.91.32a8.47,8.47,0,0,0-8.45,2.22A29.2,29.2,0,0,0,497,97.24c-1.8-.33-3.75-.66-5.41.12s-2.65,3.16-1.41,4.51A4,4,0,0,0,492.34,102.89Z" opacity="0.2"/><path d="M526.4,108.5c-.13.63-.3,1.26-.5,1.9-.07.21-.14.43-.23.64,0,0,0,0,0,0a20.59,20.59,0,0,1-5,7.23h0a38.49,38.49,0,0,1-12,7.59c-.34.14-.69.29-1.06.42s-.72.27-1.09.39a31.28,31.28,0,0,1-13,1.23c-1.54-.13-3.1-.32-4.7-.52-1.33-.18-4.06.31-6.36.24-1.57,0-3-.31-3.59-1.25-4.74-6.88,10.44-17.5,13.76-20.12,6.18-4.85,13-9.32,20.38-11a26.65,26.65,0,0,1,4.43-.68,7.91,7.91,0,0,1,7.79,4.26A14.08,14.08,0,0,1,526.4,108.5Z" fill="#378b3d"/><path d="M476.85,129.59c4-1.81,15.7-10,6.61-12.46-4.55-1.21-9.31-.1-13.85-.71-5.41-.73-10.86-1.83-16.28-1.21-.83.09-1.82.37-2,1.18-.25,1.09,1.12,1.77,2.2,2l10.68,2.51a13.52,13.52,0,0,0-10.94,2c-.73.52-1.47,1.38-1.11,2.19s1.18.85,1.92.91l13.21,1.19a16.42,16.42,0,0,0-6.7,2.47c-1.07.69-2.16,2-1.42,3.08.55.76,1.68.7,2.6.55C466.89,132.56,472.1,131.72,476.85,129.59Z" fill="#378b3d"/><path d="M497.74,114.92c5.36-.85,16-5.4,17.54-11.5,1.25-5.06-6.79-9.17-8.28-13.51-1.74-5-2.26-10.64-5.42-14.93s-8.79-6.63-14.22-7.47-11-.53-16.45-1.08a52.87,52.87,0,0,1-20.18-6.27c.31,5.56,4.08,10.46,8.72,13.53s10.09,4.64,15.44,6.15l-14.3,4.44a35.62,35.62,0,0,0,26.1,2.64l-16.27,7.14a59.78,59.78,0,0,0,18.1.94,28,28,0,0,0-13.08,5.73,21.22,21.22,0,0,0,15.71-1.48c-.52,1.48-2.17,2.22-3.7,2.57s-3.17.55-4.39,1.53-1.62,3.17-.3,4c.93.6,2.15.23,3.18-.15l8.37-3.07a8.46,8.46,0,0,0-7,5.25,29.25,29.25,0,0,0,12.59-1.47c-1.79.37-3.71.81-4.95,2.16s-1.27,3.92.39,4.7A4,4,0,0,0,497.74,114.92Z" fill="#378b3d"/><path d="M529.12,106.77a17.34,17.34,0,0,1-2.72,1.73c-4.46,2.39-11.33,4.19-15.09,1.54a6.26,6.26,0,0,1-2.49-4.06c-.85-4.1,1.1-7.85,4.14-10.7a20.27,20.27,0,0,1,11.6-5.35c4.29-.3,9,2.28,9.82,6.5,0,.21.08.42.1.62C534.85,100.83,532.13,104.36,529.12,106.77Z" fill="#378b3d"/><path d="M529.12,106.77a17.34,17.34,0,0,1-2.72,1.73c-.13.63-.3,1.26-.5,1.9-.07.21-.14.43-.23.64,0,0,0,0,0,0-2.21,5.77-8.45,11-13.84,13.74-5.62,2.91-12.21,3.66-18.35,3.13-1.54-.13-3.1-.32-4.7-.52-1.94-.25-3.81.45-5.7.34.35,0,1.67-1.37,2-1.61a8,8,0,0,1,2.29-1.17,22,22,0,0,0,4.91-2.18,76.19,76.19,0,0,0,9.19-7c2.52-2.08,5.59-4.4,8.74-5.41.38-.11.74-.22,1.09-.34,2.73-.8,4.83-1.34,7-3.84,2-2.25,3.49-4.91,5.88-6.67a10,10,0,0,1,1-.67A16.48,16.48,0,0,1,534.11,97l.37,0C534.85,100.83,532.13,104.36,529.12,106.77Z" fill="#2f2e41"/><path d="M534.3,97c-.66,2.84-2.83,5.41-5.18,7.29a17.34,17.34,0,0,1-2.72,1.73,19,19,0,0,1-.5,1.9c-.07.21-.14.43-.23.64,0,0,0,0,0,0-2.21,5.77-8.45,11-13.84,13.74a30.82,30.82,0,0,1-13.89,3.28c-4.64,0-9.22-.22-13.44,2,2.93-.8,6,0,9,.24,6.14.53,12.73-.22,18.35-3.13,5.39-2.79,11.63-8,13.84-13.74,0,0,0,0,0,0,.09-.21.16-.43.23-.64.2-.64.37-1.27.5-1.9a17.34,17.34,0,0,0,2.72-1.73c3-2.41,5.73-5.94,5.36-9.72Z" opacity="0.2"/><path d="M539.2,95.68a8.13,8.13,0,0,1-1.7,2.09,4.91,4.91,0,0,1-3.09,1.34,2,2,0,0,1-1.79-3C533.74,93.61,537.14,95.28,539.2,95.68Z" fill="#e6e7e8"/><path d="M528.15,95.91H528a1.2,1.2,0,0,0,0,2.39h.2A1.2,1.2,0,0,0,528.15,95.91Z" fill="#fff"/><path d="M502.41,95.27a5.78,5.78,0,0,1-2.52,2.13,2,2,0,0,1-1.46-.07,1.17,1.17,0,0,1-.48-1.5l.83-.38c.69-.32.34-1.46-.36-1.14l-.18.09a.49.49,0,0,0-.35,0,2.08,2.08,0,0,0-.58.41c-1.67.77-4.34,1.84-4.83.61-.4-1,.6-2,1.16-2.73a7.19,7.19,0,0,0,.78-1.28l.15-.06c.64-.26.4-1.22-.18-1.17a.64.64,0,0,0-.81.28c-1.74.68-3.86,1.35-5.44.07-2.67-2.17.64-5,2.7-5.81.71-.27.36-1.41-.36-1.13-2.6,1-5.72,3.7-4,6.8,1.29,2.35,3.93,2.24,6.23,1.6-1,1.48-2.41,3.12-.89,4.68a2.48,2.48,0,0,0,2.45.43,16.28,16.28,0,0,0,2.4-.76,2.21,2.21,0,0,0,1.22,2c2.16,1.11,4.15-.78,5.41-2.31C503.78,95.48,502.9,94.68,502.41,95.27Z" fill="#fff"/><path d="M472.65,124.21a19.48,19.48,0,0,1-2.11,1c-.3.12-1.65.79-1.92.55-.42-.38,1.23-1.41,1.45-1.58l1.88-1.47c.6-.47-.25-1.31-.85-.84l-.17.13a27.39,27.39,0,0,1-4.78,1.35,25.5,25.5,0,0,1-3.15.35c-.55,0-1.11,0-1.66,0-.83-.49-.81-.81.08-.94.95-.91,3.63-1.42,4.87-1.83,1.68-.54,3.38-1,5.1-1.38.75-.17.43-1.33-.31-1.15a58.19,58.19,0,0,0-8.55,2.62c-1.08.43-3.67.94-3.34,2.59s2.68,1.31,3.81,1.26a26.25,26.25,0,0,0,5.23-.81,6.1,6.1,0,0,0-.46.41,1.41,1.41,0,0,0-.28,2,2.15,2.15,0,0,0,2.18.24,17.77,17.77,0,0,0,3.58-1.55C473.92,124.87,473.32,123.83,472.65,124.21Z" fill="#fff"/><path d="M500.27,127.21,487,131.48a1.71,1.71,0,0,0-1.24-.55c-.76,0-.93,1.18-.17,1.19l.12,0-2.43,1.2c-.68.34-.23,1.45.46,1.1l2.58-1.28a1.59,1.59,0,0,1-.55.83,4.73,4.73,0,0,1-2.48.61c-.77.06-.61,1.24.15,1.18,1.51-.11,3.28-.4,4-1.95a2.17,2.17,0,0,0,.13-1.28l13.19-4.24C501.45,128.08,501,127,500.27,127.21Z" fill="#e6e7e8"/><path d="M503.11,128.17a26.82,26.82,0,0,1,3.51-1.21c-2.38-.36-14.47-1.24-14,3.45a1.78,1.78,0,0,0,1.74,1.42,5.14,5.14,0,0,0,2.33-.65C498.89,130.17,500.94,129.07,503.11,128.17Z" fill="#2f2e41"/><g id="e96d4af9-c66a-4c1a-990b-f03a4ba737ec" data-name="freepik--Plant--inject-88"><polyline points="696.71 361.43 690.45 322.09 738.47 322.68 733.74 360.92" fill="#2f2e41"/><path d="M717.44,314.91a8.2,8.2,0,0,0,8,.67,8.64,8.64,0,0,0,4.36-6.89,9.76,9.76,0,0,0-8-.4,9.62,9.62,0,0,0-5.29,5.92" fill="#378b3d"/><path d="M739.39,323.38a8.2,8.2,0,0,0,8,.67,8.6,8.6,0,0,0,4.36-6.89,9.76,9.76,0,0,0-8-.4,9.66,9.66,0,0,0-5.3,5.92" fill="#378b3d"/><path d="M727.07,304.46a8.22,8.22,0,0,0,6.28,5,8.66,8.66,0,0,0,7.44-3.36,9.23,9.23,0,0,0-12.5-3.78,9.67,9.67,0,0,0-1.6,1.1" fill="#378b3d"/><path d="M735.08,314.26a8.2,8.2,0,0,0-7.17,3.55,8.6,8.6,0,0,0-.16,8.15,9.22,9.22,0,0,0,8.78-9.62,9.1,9.1,0,0,0-.3-1.95" fill="#378b3d"/><path d="M742.82,329.75a8.17,8.17,0,0,0,.19,8,8.6,8.6,0,0,0,7.32,3.59,9.76,9.76,0,0,0-.46-7.95c-1.26-2.3-3.53-3.43-6.38-4.08" fill="#378b3d"/><path d="M755.58,331.57a5.36,5.36,0,0,0-1.9-1.21,8,8,0,0,0-2.6-.46,30.06,30.06,0,0,0-3.55.21,10.55,10.55,0,0,1-4.36-.38,6.67,6.67,0,0,1-3.6-3.48,19.74,19.74,0,0,1-1.55-5.31,15.45,15.45,0,0,0-1.85-5.45,19,19,0,0,0-4.07-4.13,20.11,20.11,0,0,1-3.88-3.94,13,13,0,0,1-1.94-9,12.65,12.65,0,0,1,2.36-5.81,8.68,8.68,0,0,1,1.15-1.27,2.44,2.44,0,0,1,.46-.39,2.73,2.73,0,0,1-.38.46,11.34,11.34,0,0,0-1.06,1.32,13.18,13.18,0,0,0-.2,14.46,20,20,0,0,0,3.82,3.82,19.28,19.28,0,0,1,4.17,4.24,15.37,15.37,0,0,1,1.92,5.63,19.34,19.34,0,0,0,1.49,5.2,6.28,6.28,0,0,0,3.32,3.29,10.42,10.42,0,0,0,4.19.41,28.57,28.57,0,0,1,3.58-.13,7.87,7.87,0,0,1,2.67.56,4.15,4.15,0,0,1,1.44.93,2,2,0,0,1,.3.34S755.59,331.56,755.58,331.57Z" fill="#378b3d"/><path d="M755.58,331.57a5.36,5.36,0,0,0-1.9-1.21,8,8,0,0,0-2.6-.46,30.06,30.06,0,0,0-3.55.21,10.55,10.55,0,0,1-4.36-.38,6.67,6.67,0,0,1-3.6-3.48,19.74,19.74,0,0,1-1.55-5.31,15.45,15.45,0,0,0-1.85-5.45,19,19,0,0,0-4.07-4.13,20.11,20.11,0,0,1-3.88-3.94,13,13,0,0,1-1.94-9,12.65,12.65,0,0,1,2.36-5.81,8.68,8.68,0,0,1,1.15-1.27,2.44,2.44,0,0,1,.46-.39,2.73,2.73,0,0,1-.38.46,11.34,11.34,0,0,0-1.06,1.32,13.18,13.18,0,0,0-.2,14.46,20,20,0,0,0,3.82,3.82,19.28,19.28,0,0,1,4.17,4.24,15.37,15.37,0,0,1,1.92,5.63,19.34,19.34,0,0,0,1.49,5.2,6.28,6.28,0,0,0,3.32,3.29,10.42,10.42,0,0,0,4.19.41,28.57,28.57,0,0,1,3.58-.13,7.87,7.87,0,0,1,2.67.56,4.15,4.15,0,0,1,1.44.93,2,2,0,0,1,.3.34S755.59,331.56,755.58,331.57Z" fill="#378b3d"/><path d="M663.9,335.6a12.13,12.13,0,0,0-16.44-12,20.28,20.28,0,0,0,16,11.82" fill="#378b3d"/><path d="M660.73,337.27c-2.35,2.58-2.2,6.73-.52,9.79s4.57,5.23,7.47,7.17a15.77,15.77,0,0,0-6.79-17.9" fill="#378b3d"/><path d="M672.11,325.18a14,14,0,0,0,15.3,12.56l.6-.07c-.91-3.78-2.42-7.58-5.34-10.14s-7.52-3.52-10.74-1.36" fill="#378b3d"/><path d="M672,321.33c-.59-3.44-4-5.93-7.45-6.26s-6.9,1.16-9.68,3.26a12.61,12.61,0,0,0,17.17,1.7" fill="#378b3d"/><path d="M654.14,350.56c-3.3,2.81-4.12,7.83-2.75,11.94s4.58,7.39,8.18,9.8c1.39-4.08,2.26-8.45,1.53-12.7s-3.29-8.34-7.23-10.07" fill="#378b3d"/><path d="M671.5,311.69A10.13,10.13,0,0,1,685.58,309a9.76,9.76,0,0,1,1.92,1.71,8.75,8.75,0,0,1-15.8.4" fill="#378b3d"/><path d="M675.54,301.78a13.16,13.16,0,0,1-16.8-10.3,29.25,29.25,0,0,1,7.93.11,12.86,12.86,0,0,1,7,3.46,7,7,0,0,1,1.84,6.73" fill="#378b3d"/><path d="M683.16,299.21A10.79,10.79,0,0,1,681.65,284a11,11,0,0,1,1.44-1.45,22.57,22.57,0,0,1,4.71,10.05,8.33,8.33,0,0,1,0,4.15,3.84,3.84,0,0,1-2.9,2.72" fill="#378b3d"/><g opacity="0.4"><path d="M663.9,335.6a12.13,12.13,0,0,0-16.44-12,20.28,20.28,0,0,0,16,11.82"/></g><g opacity="0.4"><path d="M660.73,337.27c-2.35,2.58-2.2,6.73-.52,9.79s4.57,5.23,7.47,7.17a15.77,15.77,0,0,0-6.79-17.9"/></g><g opacity="0.4"><path d="M672.11,325.18a14,14,0,0,0,15.3,12.56l.6-.07c-.91-3.78-2.42-7.58-5.34-10.14s-7.52-3.52-10.74-1.36"/></g><g opacity="0.4"><path d="M672,321.33c-.59-3.44-4-5.93-7.45-6.26s-6.9,1.16-9.68,3.26a12.61,12.61,0,0,0,17.17,1.7"/></g><g opacity="0.4"><path d="M654.14,350.56c-3.3,2.81-4.12,7.83-2.75,11.94s4.58,7.39,8.18,9.8c1.39-4.08,2.26-8.45,1.53-12.7s-3.29-8.34-7.23-10.07"/></g><g opacity="0.4"><path d="M671.5,311.69A10.13,10.13,0,0,1,685.58,309a9.76,9.76,0,0,1,1.92,1.71,8.75,8.75,0,0,1-15.8.4"/></g><g opacity="0.4"><path d="M675.54,301.78a13.16,13.16,0,0,1-16.8-10.3,29.25,29.25,0,0,1,7.93.11,12.86,12.86,0,0,1,7,3.46,7,7,0,0,1,1.84,6.73"/></g><g opacity="0.4"><path d="M683.16,299.21A10.79,10.79,0,0,1,681.65,284a11,11,0,0,1,1.44-1.45,22.57,22.57,0,0,1,4.71,10.05,8.33,8.33,0,0,1,0,4.15,3.84,3.84,0,0,1-2.9,2.72"/></g><path d="M696.33,323.36a1.22,1.22,0,0,1,0-.27,4.82,4.82,0,0,1,0-.79c0-.7.11-1.72.13-3a27.24,27.24,0,0,0-1.78-10.91,16.61,16.61,0,0,0-4.39-6.18,11.71,11.71,0,0,0-8-2.94,9.81,9.81,0,0,0-4.5,1.13,8.82,8.82,0,0,0-3.48,3.32c-1.74,2.88-2.18,6.48-2,10s.63,7.12.24,10.56a16.43,16.43,0,0,1-1.32,4.89,10.24,10.24,0,0,1-3,3.87,15.15,15.15,0,0,1-4.12,2.11,20.53,20.53,0,0,0-3.88,1.76,14,14,0,0,0-5.09,5.55,13.49,13.49,0,0,0-1.47,6.07,14.41,14.41,0,0,0,.77,4.69,17.28,17.28,0,0,0,1.82,3.65,1.54,1.54,0,0,1-.18-.2c-.16-.21-.32-.43-.46-.65a12.25,12.25,0,0,1-1.37-2.73,14.11,14.11,0,0,1-.87-4.76,13.6,13.6,0,0,1,1.43-6.24,14.32,14.32,0,0,1,5.19-5.75c2.38-1.58,5.51-2,7.93-3.87s3.69-5.15,4.06-8.45-.12-6.86-.25-10.48.27-7.32,2.1-10.32a9.34,9.34,0,0,1,3.69-3.5,10.36,10.36,0,0,1,4.72-1.17,12.09,12.09,0,0,1,8.28,3.09A16.9,16.9,0,0,1,695,308.2a23,23,0,0,1,1.51,6.23,33.81,33.81,0,0,1,.13,4.83,24,24,0,0,1-.23,3.05,4.53,4.53,0,0,1-.1.78A.82.82,0,0,1,696.33,323.36Z" fill="#378b3d"/><g opacity="0.4"><path d="M696.33,323.36a1.22,1.22,0,0,1,0-.27,4.82,4.82,0,0,1,0-.79c0-.7.11-1.72.13-3a27.24,27.24,0,0,0-1.78-10.91,16.61,16.61,0,0,0-4.39-6.18,11.71,11.71,0,0,0-8-2.94,9.81,9.81,0,0,0-4.5,1.13,8.82,8.82,0,0,0-3.48,3.32c-1.74,2.88-2.18,6.48-2,10s.63,7.12.24,10.56a16.43,16.43,0,0,1-1.32,4.89,10.24,10.24,0,0,1-3,3.87,15.15,15.15,0,0,1-4.12,2.11,20.53,20.53,0,0,0-3.88,1.76,14,14,0,0,0-5.09,5.55,13.49,13.49,0,0,0-1.47,6.07,14.41,14.41,0,0,0,.77,4.69,17.28,17.28,0,0,0,1.82,3.65,1.54,1.54,0,0,1-.18-.2c-.16-.21-.32-.43-.46-.65a12.25,12.25,0,0,1-1.37-2.73,14.11,14.11,0,0,1-.87-4.76,13.6,13.6,0,0,1,1.43-6.24,14.32,14.32,0,0,1,5.19-5.75c2.38-1.58,5.51-2,7.93-3.87s3.69-5.15,4.06-8.45-.12-6.86-.25-10.48.27-7.32,2.1-10.32a9.34,9.34,0,0,1,3.69-3.5,10.36,10.36,0,0,1,4.72-1.17,12.09,12.09,0,0,1,8.28,3.09A16.9,16.9,0,0,1,695,308.2a23,23,0,0,1,1.51,6.23,33.81,33.81,0,0,1,.13,4.83,24,24,0,0,1-.23,3.05,4.53,4.53,0,0,1-.1.78A.82.82,0,0,1,696.33,323.36Z"/></g><path d="M766.26,314.78a10.19,10.19,0,0,0,.72-3.52,8.69,8.69,0,0,0-.94-4.07,8.42,8.42,0,0,0-3.91-3.78,8.55,8.55,0,0,0-3.09-.83,9.84,9.84,0,0,0-3.45.4c-2.35.62-4.68,2-7.47,2.51a8.9,8.9,0,0,1-4.32-.1,6.66,6.66,0,0,1-3.53-2.82c-1.68-2.6-2.15-5.87-4.18-8.26a8.11,8.11,0,0,0-3.79-2.48,10.4,10.4,0,0,0-4.43-.45,11.27,11.27,0,0,0-7.37,3.83,17.06,17.06,0,0,0-3.66,6.77,20.54,20.54,0,0,0-.82,6.71,72.09,72.09,0,0,0,1.25,9.81l.45,2.66a3.56,3.56,0,0,0,.11.69,1,1,0,0,1,0,.24.68.68,0,0,0-.07-.23l-.16-.68c-.13-.65-.32-1.53-.55-2.64a66.66,66.66,0,0,1-1.42-9.84,20.52,20.52,0,0,1,.77-6.84,17.63,17.63,0,0,1,3.72-7,13.31,13.31,0,0,1,3.37-2.7,11.58,11.58,0,0,1,9-.86,8.64,8.64,0,0,1,4,2.64c2.14,2.57,2.6,5.85,4.21,8.32a6.06,6.06,0,0,0,3.25,2.62A8.41,8.41,0,0,0,748,305c2.68-.51,5-1.83,7.45-2.45a10.15,10.15,0,0,1,3.59-.39,8.84,8.84,0,0,1,8.11,9.08,8.16,8.16,0,0,1-.52,2.66A4.44,4.44,0,0,1,766.26,314.78Z" fill="#378b3d"/><path d="M738.17,297.35a9.38,9.38,0,0,0,8.57.56A8.66,8.66,0,0,0,751.1,291a9.8,9.8,0,0,0-8-.41,9.67,9.67,0,0,0-5.29,5.92" fill="#378b3d"/><path d="M747.28,305.61a9.31,9.31,0,0,0,4,7.6,8.64,8.64,0,0,0,8.16.14,9.8,9.8,0,0,0-3.8-7,9.62,9.62,0,0,0-7.81-1.43" fill="#378b3d"/><path d="M763.07,303.78a9.39,9.39,0,0,0,8.58-.36,8.64,8.64,0,0,0,3.6-7.31,9.2,9.2,0,0,0-12,5,8.93,8.93,0,0,0-.56,1.91" fill="#378b3d"/><path d="M724.91,291.88c-2.3-2-3.85-5.47-3.41-8.08a8.65,8.65,0,0,1,5.3-6.21,9.22,9.22,0,0,1-1.35,14.29" fill="#378b3d"/><path d="M663.24,280.57a.67.67,0,0,1,.09-.21l.32-.59c.29-.51.74-1.25,1.39-2.17a23.15,23.15,0,0,1,6.87-6.5,16.89,16.89,0,0,1,6.17-2.26,15.16,15.16,0,0,1,7.49.79,12.18,12.18,0,0,1,6.41,5.24c1.47,2.57,1.94,5.59,2.8,8.48a15.61,15.61,0,0,0,1.79,4,12.42,12.42,0,0,0,3,3c1.14.84,2.34,1.61,3.43,2.49a14.73,14.73,0,0,1,2.79,3,18.5,18.5,0,0,1,2.85,7,24.45,24.45,0,0,1,.38,6.56,50.05,50.05,0,0,1-1.67,9.32c-.29,1.08-.53,1.92-.69,2.48a5.28,5.28,0,0,1-.28.85,4.29,4.29,0,0,1,.18-.88c.14-.61.34-1.45.59-2.5a54.31,54.31,0,0,0,1.51-9.3,24.39,24.39,0,0,0-.44-6.44,18,18,0,0,0-2.83-6.79,13.84,13.84,0,0,0-2.7-2.91c-1.06-.86-2.26-1.61-3.42-2.47a13.09,13.09,0,0,1-3.18-3.12,15.78,15.78,0,0,1-1.85-4.18c-.87-2.94-1.35-5.91-2.76-8.37A11.71,11.71,0,0,0,685.4,270a14.84,14.84,0,0,0-7.26-.8,16.14,16.14,0,0,0-6,2.15,23.85,23.85,0,0,0-6.9,6.3c-.67.89-1.14,1.61-1.46,2.11A8.33,8.33,0,0,1,663.24,280.57Z" fill="#378b3d"/><path d="M701,291.15c-.79-.74-1.18-.22-2.25,0a6.49,6.49,0,0,0-2.88,1.44,12.16,12.16,0,0,0-3.94,12.75,9.48,9.48,0,0,0,8.66-14.26" fill="#378b3d"/><path d="M668.33,276.29c-.4-1-1-.71-2-1a6.5,6.5,0,0,0-3.22.06,12.17,12.17,0,0,0-9,9.81,9.49,9.49,0,0,0,13.9-9.08" fill="#378b3d"/><path d="M708.15,311.25a11,11,0,0,0-17.2.84,13.57,13.57,0,0,0,8.92,3.52,13.9,13.9,0,0,0,9-3.63" fill="#378b3d"/><path d="M705.47,296.24a11.09,11.09,0,0,0,11.41-10.75,11.44,11.44,0,0,0-.21-2.48,10,10,0,0,0-11.57,13.12" fill="#378b3d"/><path d="M694,278.59a11.1,11.1,0,0,0,14.36-6.34,10.67,10.67,0,0,0,.64-2.42,9.94,9.94,0,0,0-15.27,8.53" fill="#378b3d"/><path d="M690.13,272.83a11.09,11.09,0,0,0-14.36,6.33,10.75,10.75,0,0,0-.64,2.43,10,10,0,0,0,15.32-8.51" fill="#378b3d"/><path d="M685.55,269.72a11.1,11.1,0,0,0,7-14.06,10.65,10.65,0,0,0-1-2.24,10,10,0,0,0-6.29,16.33" fill="#378b3d"/><path d="M673.78,270.29a11.1,11.1,0,0,0-6.63-14.22,10.78,10.78,0,0,0-2.37-.57,10,10,0,0,0,8.83,15.1" fill="#378b3d"/><polygon points="689.83 356.87 693.51 361.43 738.71 361.43 741.79 356.87 689.83 356.87" fill="#2f2e41"/><polygon points="689.83 356.87 693.51 361.43 738.71 361.43 741.79 356.87 689.83 356.87" opacity="0.2"/></g></svg>